<?xml version="1.0" standalone="no"?>
<!DOCTYPE svg PUBLIC "-//W3C//DTD SVG 20010904//EN"
 "http://www.w3.org/TR/2001/REC-SVG-20010904/DTD/svg10.dtd">
<svg version="1.0" xmlns="http://www.w3.org/2000/svg"
 width="700.000000pt" height="700.000000pt" viewBox="0 0 700.000000 700.000000"
 preserveAspectRatio="xMidYMid meet">
<metadata>
Created by potrace 1.14, written by Peter Selinger 2001-2017
</metadata>
<g transform="translate(0.000000,700.000000) scale(0.100000,-0.100000)"
fill="#000000" stroke="none">
<path d="M720 6729 c-248 -48 -450 -235 -517 -480 -17 -60 -18 -193 -18 -2379
0 -1938 2 -2324 14 -2370 16 -66 59 -164 94 -214 26 -39 177 -201 163 -176 -5
8 2 3 15 -12 29 -32 105 -71 121 -62 6 4 8 3 5 -4 -4 -6 18 -20 55 -34 l63
-23 1325 -5 1325 -5 60 -32 c58 -32 66 -41 190 -224 76 -111 151 -210 180
-237 27 -25 44 -42 36 -37 -9 5 -12 4 -7 -3 4 -6 13 -9 20 -6 8 3 17 0 22 -7
4 -8 3 -10 -4 -5 -7 4 -12 5 -12 2 0 -11 103 -57 163 -72 112 -29 278 5 330
69 10 12 15 15 11 7 -5 -8 23 18 61 59 51 54 382 533 1224 1770 635 933 1166
1721 1180 1751 36 78 36 182 -1 261 -100 217 -416 281 -638 130 -30 -20 -70
-56 -90 -81 -21 -25 -419 -607 -886 -1294 l-849 -1249 -5 2219 -5 2219 -28 80
c-73 206 -212 346 -416 419 l-86 31 -1525 1 c-839 1 -1545 -2 -1570 -7z m1765
-620 c228 -19 418 -70 596 -160 291 -145 484 -389 564 -709 59 -236 59 -498
-1 -710 -31 -111 -117 -281 -202 -399 -82 -115 -289 -338 -485 -524 -198 -187
-268 -284 -316 -439 -25 -84 -51 -228 -51 -289 0 -26 -3 -61 -6 -78 l-6 -31
-381 0 -380 0 6 143 c15 364 81 575 257 819 25 35 160 180 300 323 272 277
329 345 385 458 55 113 69 183 69 332 0 204 -47 339 -153 446 -98 97 -215 139
-389 139 -329 -1 -546 -190 -579 -505 l-8 -70 -422 -3 -423 -2 0 59 c0 228 95
516 231 696 278 370 793 556 1394 504z m-94 -3919 c227 -70 354 -302 294 -535
-62 -238 -298 -371 -571 -322 -160 29 -274 112 -337 244 -31 65 -32 73 -32
193 0 120 1 128 32 193 81 170 262 266 477 251 44 -3 106 -14 137 -24z m-1634
-1196 c-3 -3 -12 -4 -19 -1 -8 3 -5 6 6 6 11 1 17 -2 13 -5z m3480 -630 c-3
-3 -12 -4 -19 -1 -8 3 -5 6 6 6 11 1 17 -2 13 -5z m-174 -11 c-7 -2 -21 -2
-30 0 -10 3 -4 5 12 5 17 0 24 -2 18 -5z m120 0 c-7 -2 -19 -2 -25 0 -7 3 -2
5 12 5 14 0 19 -2 13 -5z"/>
</g>
</svg>
