<?xml version="1.0" standalone="no"?>
<!DOCTYPE svg PUBLIC "-//W3C//DTD SVG 20010904//EN"
 "http://www.w3.org/TR/2001/REC-SVG-20010904/DTD/svg10.dtd">
<svg version="1.0" xmlns="http://www.w3.org/2000/svg"
 width="1785.000000pt" height="1785.000000pt" viewBox="0 0 1785.000000 1785.000000"
 preserveAspectRatio="xMidYMid meet">
<metadata>
Created by potrace 1.14, written by Peter Selinger 2001-2017
</metadata>
<g transform="translate(0.000000,1785.000000) scale(0.100000,-0.100000)"
fill="#000000" stroke="none">
<path d="M1273 16625 c-178 -39 -329 -197 -362 -379 -7 -40 -11 -356 -11 -960
0 -982 0 -983 57 -1089 65 -121 202 -222 337 -246 43 -8 2004 -11 6810 -11
7374 0 6824 -4 6939 57 121 65 222 202 246 337 7 40 11 356 11 960 0 982 0
983 -57 1089 -65 121 -202 222 -337 246 -43 8 -2003 11 -6815 10 -5651 0
-6766 -3 -6818 -14z m957 -615 c205 -69 367 -229 437 -433 25 -74 28 -95 28
-212 0 -109 -4 -141 -23 -200 -70 -209 -229 -371 -435 -442 -74 -25 -95 -28
-212 -28 -109 0 -141 4 -200 23 -209 70 -371 229 -442 435 -25 74 -28 95 -28
212 0 109 4 141 23 200 80 241 259 400 527 469 11 3 74 3 140 1 90 -2 136 -9
185 -25z"/>
<path d="M1273 12575 c-178 -39 -329 -197 -362 -379 -7 -40 -11 -356 -11 -960
0 -982 0 -983 57 -1089 65 -121 202 -222 337 -246 42 -8 1370 -11 4558 -11
l4498 0 0 -675 0 -675 -4502 0 c-4917 0 -4577 4 -4691 -57 -121 -65 -222 -202
-246 -337 -7 -40 -11 -356 -11 -960 0 -982 0 -983 57 -1089 65 -121 202 -222
337 -246 42 -8 1370 -11 4558 -11 l4498 0 0 -675 0 -675 -4502 0 c-4917 0
-4577 4 -4691 -57 -121 -65 -222 -202 -246 -337 -7 -40 -11 -356 -11 -960 0
-982 0 -983 57 -1089 65 -121 202 -222 337 -246 43 -8 2004 -11 6810 -11 7374
0 6824 -4 6939 57 121 65 222 202 246 337 7 39 11 271 11 658 l0 598 1068 0
c695 0 1083 4 1112 11 160 36 295 161 345 320 l25 80 0 3332 c0 3673 5 3383
-61 3508 -38 70 -126 157 -197 193 -114 58 -73 56 -1229 56 l-1063 0 0 603 c0
657 -3 688 -57 790 -65 121 -202 222 -337 246 -43 8 -2003 11 -6815 10 -5651
0 -6766 -3 -6818 -14z m957 -705 c205 -69 367 -229 437 -433 25 -74 28 -95 28
-212 0 -109 -4 -141 -23 -200 -70 -209 -229 -371 -435 -442 -74 -25 -95 -28
-212 -28 -109 0 -141 4 -200 23 -209 70 -371 229 -442 435 -25 74 -28 95 -28
212 0 109 4 141 23 200 80 241 259 400 527 469 11 3 74 3 140 1 90 -2 136 -9
185 -25z m13300 -2930 l0 -190 -562 -2 -563 -3 -3 -1557 -2 -1558 -225 0 -225
0 0 1560 0 1560 -560 0 -560 0 0 190 0 190 1350 0 1350 0 0 -190z m-13300
-1090 c205 -69 367 -229 437 -433 25 -74 28 -95 28 -212 0 -109 -4 -141 -23
-200 -70 -209 -229 -371 -435 -442 -74 -25 -95 -28 -212 -28 -109 0 -141 4
-200 23 -209 70 -371 229 -442 435 -25 74 -28 95 -28 212 0 109 4 141 23 200
80 241 259 400 527 469 11 3 74 3 140 1 90 -2 136 -9 185 -25z m0 -4140 c205
-69 367 -229 437 -433 25 -74 28 -95 28 -212 0 -109 -4 -141 -23 -200 -70
-209 -229 -371 -435 -442 -74 -25 -95 -28 -212 -28 -109 0 -141 4 -200 23
-209 70 -371 229 -442 435 -25 74 -28 95 -28 212 0 109 4 141 23 200 80 241
259 400 527 469 11 3 74 3 140 1 90 -2 136 -9 185 -25z"/>
</g>
</svg>
